<svg width="15" height="14" viewBox="0 0 15 14" fill="none" xmlns="http://www.w3.org/2000/svg">
<g id="Icon" clip-path="url(#clip0_0_289)">
<path id="Vector" d="M10.3711 5.87891L2.49609 1.06641C2.27734 0.938802 2.04948 0.875 1.8125 0.875C1.42969 0.893229 1.11979 1.02083 0.882812 1.25781C0.627604 1.51302 0.5 1.82292 0.5 2.1875V11.8125C0.5 12.1771 0.627604 12.487 0.882812 12.7422C1.11979 12.9792 1.42969 13.1068 1.8125 13.125C2.04948 13.125 2.27734 13.0612 2.49609 12.9336L10.3711 8.12109C10.7721 7.84766 10.9818 7.47396 11 7C10.9818 6.52604 10.7721 6.15234 10.3711 5.87891ZM1.8125 11.8125V2.1875L9.6875 6.97266L1.8125 11.8125Z" fill="#FF6D2E"/>
</g>
<defs>
<clipPath id="clip0_0_289">
<rect width="14" height="14" fill="white" transform="matrix(1 0 0 -1 0.5 14)"/>
</clipPath>
</defs>
</svg>
